<svg width="49" height="61" viewBox="0 0 49 61" fill="none" xmlns="http://www.w3.org/2000/svg">
<path fill-rule="evenodd" clip-rule="evenodd" d="M28.5 26.5C28.5 28.74 26.74 30.5 24.5 30.5C22.26 30.5 20.5 28.74 20.5 26.5C20.5 24.26 22.26 22.5 24.5 22.5C26.74 22.5 28.5 24.26 28.5 26.5ZM26.9 26.5C26.9 25.14 25.86 24.1 24.5 24.1C23.14 24.1 22.1 25.14 22.1 26.5C22.1 27.86 23.14 28.9 24.5 28.9C25.86 28.9 26.9 27.86 26.9 26.5ZM16.6602 38.5001C17.3802 34.8201 20.6602 32.1001 24.5002 32.1001C28.3402 32.1001 31.6202 34.8201 32.3402 38.5001H30.6602C29.9402 35.7801 27.4602 33.7001 24.5002 33.7001C21.5402 33.7001 19.0602 35.7801 18.3402 38.5001H16.6602Z" fill="white"/>
</svg>
