<svg width="49" height="61" viewBox="0 0 49 61" fill="none" xmlns="http://www.w3.org/2000/svg">
<path d="M32.5 37.3041L28.2938 33.098C29.1186 32.0258 29.6134 30.6237 29.6134 29.1392C29.6134 25.5103 26.6443 22.5413 23.0155 22.5413C19.3866 22.5413 16.5 25.5103 16.5 29.1392C16.5 32.7681 19.4691 35.7371 23.0979 35.7371C24.6649 35.7371 26.067 35.2423 27.2216 34.3351L31.3454 38.4588L32.5 37.3041ZM23.0979 34.0877C20.3763 34.0877 18.1495 31.8608 18.1495 29.1392C18.1495 26.4175 20.3763 24.1907 23.0979 24.1907C25.8196 24.1907 28.0464 26.4175 28.0464 29.1392C28.0464 31.8608 25.8196 34.0877 23.0979 34.0877Z" fill="white"/>
</svg>
