<svg width="49" height="61" viewBox="0 0 49 61" fill="none" xmlns="http://www.w3.org/2000/svg">
<path d="M24.4301 37.681L17.6386 30.8895C16.1205 29.2116 16.1205 26.6548 17.6386 25.0568C18.4376 24.1779 19.4763 23.6186 20.6748 23.5387C21.8733 23.4588 22.9919 23.8583 23.8708 24.5774L24.4301 25.1367L24.9894 24.5774C26.6673 22.8995 29.3839 22.8995 31.1417 24.5774C32.0206 25.3764 32.5 26.495 32.5 27.6935C32.5 28.892 32.1005 30.0106 31.3015 30.8895L24.4301 37.681ZM20.9145 25.1367C20.8346 25.1367 20.7547 25.1367 20.7547 25.1367C19.9557 25.1367 19.3165 25.5362 18.8371 26.0955C17.8783 27.1342 17.8783 28.7322 18.8371 29.7709L24.4301 35.3639L30.103 29.7709C30.5824 29.2116 30.902 28.4925 30.902 27.7734C30.902 27.0543 30.5025 26.2553 29.9432 25.7759C28.9045 24.7372 27.2266 24.7372 26.1879 25.696L24.4301 27.4538L22.7522 25.7759C22.2728 25.3764 21.6336 25.1367 20.9145 25.1367Z" fill="white"/>
</svg>
